Coordinates
version=1
nRows=32
nColumns=12
inDegrees=yes

Units are S.I. units (second, meters, Newtons, ...)
Angles are in degrees

endheader
time	SC_y	SC_z	SC_x	AC_y	AC_z	AC_x	GH_y	GH_z	GH_yy	EL_x	PS_y
       0.0              -17.07          30.25          20.29           32.8         -16.96          11.38         -14.87         -16.42         -30.15          68.18          20.43
   0.03489              -17.07          30.25          20.28          32.81         -16.96          11.38         -14.89          -16.4         -30.15          68.17          20.44
   0.06978              -17.07          30.24          20.28          32.81         -16.95          11.38         -14.91         -16.39         -30.15          68.17          20.45
    0.1047              -17.07          30.24          20.28          32.81         -16.95          11.39         -14.93         -16.37         -30.15          68.17          20.46
    0.1396              -17.07          30.24          20.28          32.81         -16.95          11.39         -14.96         -16.35         -30.15          68.17          20.47
    0.1744              -17.07          30.23          20.27          32.81         -16.95          11.39         -14.98         -16.33         -30.16          68.17          20.49
    0.2093              -17.07          30.23          20.27          32.81         -16.95          11.39         -15.01         -16.31         -30.16          68.17           20.5
    0.2442              -17.07          30.22          20.27          32.81         -16.95          11.39         -15.04         -16.29         -30.16          68.16          20.52
    0.2791              -17.07          30.22          20.26          32.82         -16.94          11.39         -15.07         -16.27         -30.16          68.16          20.53
     0.314              -17.06          30.21          20.26          32.82         -16.94          11.39          -15.1         -16.24         -30.17          68.16          20.55
    0.3489              -17.06          30.21          20.25          32.82         -16.94          11.39         -15.13         -16.22         -30.17          68.16          20.57
    0.3838              -17.06           30.2          20.25          32.82         -16.94           11.4         -15.17         -16.19         -30.18          68.15          20.59
    0.4187              -17.06           30.2          20.24          32.82         -16.93           11.4         -15.21         -16.16         -30.18          68.15          20.61
    0.4535              -17.06          30.19          20.24          32.83         -16.93           11.4         -15.26         -16.12         -30.18          68.15          20.63
    0.4884              -17.06          30.18          20.23          32.83         -16.93           11.4          -15.3         -16.08         -30.19          68.15          20.66
    0.5233              -17.06          30.17          20.23          32.83         -16.92           11.4         -15.35         -16.04         -30.19          68.14          20.69
    0.5582              -17.06          30.16          20.22          32.83         -16.92           11.4         -15.41          -16.0          -30.2          68.14          20.72
    0.5931              -17.06          30.15          20.21          32.84         -16.92          11.41         -15.47         -15.95          -30.2          68.13          20.75
     0.628              -17.05          30.14          20.21          32.84         -16.91          11.41         -15.53          -15.9         -30.21          68.13          20.79
    0.6629              -17.05          30.13           20.2          32.85         -16.91          11.41         -15.61         -15.85         -30.22          68.12          20.82
    0.6978              -17.05          30.12          20.19          32.85          -16.9          11.42         -15.69         -15.78         -30.23          68.12          20.87
    0.7326              -17.05          30.11          20.18          32.86         -16.89          11.42         -15.77         -15.72         -30.23          68.11          20.91
    0.7675              -17.04          30.09          20.16          32.86         -16.89          11.42         -15.87         -15.64         -30.24          68.11          20.97
    0.8024              -17.04          30.08          20.15          32.87         -16.88          11.43         -15.98         -15.56         -30.25           68.1          21.02
    0.8373              -17.04          30.06          20.14          32.87         -16.87          11.43          -16.1         -15.46         -30.27          68.09          21.09
    0.8722              -17.04          30.04          20.12          32.88         -16.86          11.44         -16.23         -15.36         -30.28          68.08          21.16
    0.9071              -17.03          30.01           20.1          32.89         -16.85          11.44         -16.38         -15.25         -30.29          68.07          21.24
     0.942              -17.03          29.99          20.08           32.9         -16.84          11.45         -16.54         -15.11         -30.31          68.06          21.33
    0.9769              -17.02          29.96          20.06          32.91         -16.83          11.46         -16.73         -14.97         -30.33          68.05          21.43
     1.012              -17.02          29.92          20.03          32.92         -16.81          11.46         -16.95          -14.8         -30.35          68.03          21.55
     1.047              -17.01          29.88           20.0          32.94          -16.8          11.47         -17.19         -14.61         -30.37          68.02          21.68
     1.082               -17.0          29.84          19.97          32.95         -16.78          11.49         -17.47         -14.39          -30.4           68.0          21.83
